# xmcd
#
# Track frame offsets: 
#        150
#        12032
#        26856
#        41558
#        54107
#        67219
#        82432
#        96919
#        111336
#        123315
#        133426
#        143449
#        152623
#        162714
#        173955
#        186426
#        199513
#        210708
#        223737
#        234460
#
# Disc length: 3319 seconds
#
# Revision: 0
# Processed by: cddbd v1.5.2PL0 Copyright (c) Steve Scherf et al.
# Submitted via: ExactAudioCopyFreeDBPlugin 1.0
#
DISCID=2f0cf514
DTITLE=Various Artist - Carolina Gospel Quartets Vol. 2 (1936-1939)
DYEAR=1997
DGENRE=Gospel
TTITLE0=Bright Moon Quartet - Good News, the Chariot Is Coming
TTITLE1=Bright Moon Quartet - Lord Send Thee
TTITLE2=Bright Moon Quartet - Is Your Name Signed Down?
TTITLE3=Bright Moon Quartet - You're Going to Need That Pure Religion
TTITLE4=Bright Moon Quartet - I See the Sign of Judgement
TTITLE5=Bright Moon Quartet - Lord, I'm Goin' Through
TTITLE6=Bright Moon Quartet - Dying Gambler (O Save Me Lord
TTITLE7=Bright Moon Quartet - You Can't Go Wrong and Get By
TTITLE8=Capitol City Four - Let the Church Roll On
TTITLE9=Capitol City Four - Be Ready When He Comes
TTITLE10=Capitol City Four - Fire Down Yonder
TTITLE11=Capitol City Four - That's What's the Matter with the Church
TTITLE12=Capitol City Four - Leanin' on the Lord
TTITLE13=Capitol City Four - Climbing Up All Day
TTITLE14=Moore Spiritual Singers - Nicodemus
TTITLE15=Moore Spiritual Singers - Hezekiah
TTITLE16=Moore Spiritual Singers - Moses
TTITLE17=Moore Spiritual Singers - The Kings
TTITLE18=Moore Spiritual Singers - Satan
TTITLE19=Moore Spiritual Singers - Noah
EXTD=
EXTT0=
EXTT1=
EXTT2=
EXTT3=
EXTT4=
EXTT5=
EXTT6=
EXTT7=
EXTT8=
EXTT9=
EXTT10=
EXTT11=
EXTT12=
EXTT13=
EXTT14=
EXTT15=
EXTT16=
EXTT17=
EXTT18=
EXTT19=
PLAYORDER=
